<svg width="25" height="24" viewBox="0 0 25 24" fill="none" xmlns="http://www.w3.org/2000/svg">
<path d="M12.2715 20C13.9283 20 15.2715 18.6569 15.2715 17C15.2715 15.3431 13.9283 14 12.2715 14C10.6146 14 9.27148 15.3431 9.27148 17C9.27148 18.6569 10.6146 20 12.2715 20Z" stroke="#B6BABC" stroke-width="2" stroke-linecap="round" stroke-linejoin="round"/>
<path d="M4.47183 15.1C3.69104 14.3631 3.09022 13.4565 2.71582 12.4503C2.34142 11.4441 2.20348 10.3653 2.31266 9.29728C2.42185 8.22925 2.77524 7.20064 3.3455 6.29102C3.91575 5.3814 4.6876 4.61513 5.60134 4.05149C6.51507 3.48785 7.54621 3.14193 8.615 3.0405C9.6838 2.93907 10.7616 3.08483 11.7651 3.46652C12.7685 3.84821 13.6707 4.4556 14.4019 5.24171C15.1331 6.02782 15.6737 6.97158 15.9818 8H17.7718C18.7257 8.01286 19.6508 8.32852 20.4136 8.90141C21.1764 9.4743 21.7374 10.2748 22.0156 11.1873C22.2938 12.0998 22.2748 13.0771 21.9614 13.9781C21.6479 14.8791 21.0563 15.6572 20.2718 16.2M15.9718 18.4L15.0718 18.1M9.47183 15.9L8.57183 15.6M10.8718 20.7L11.1718 19.8M13.3718 14.2L13.6718 13.3M13.8718 20.7L13.4718 19.7M11.0718 14.3L10.6718 13.3M8.57183 18.6L9.57183 18.2M14.9718 15.8L15.9718 15.4" stroke="#B6BABC" stroke-width="2" stroke-linecap="round" stroke-linejoin="round"/>
</svg>
