<svg width="20" height="20" viewBox="0 0 20 20" fill="none" xmlns="http://www.w3.org/2000/svg">
<path fill-rule="evenodd" clip-rule="evenodd" d="M15.3433 5.41667L14.6758 16.7642C14.6509 17.1887 14.4647 17.5876 14.1554 17.8793C13.846 18.171 13.4368 18.3334 13.0116 18.3333H6.98829C6.56308 18.3334 6.15392 18.171 5.84455 17.8793C5.53518 17.5876 5.349 17.1887 5.32413 16.7642L4.65829 5.41667H2.91663V4.58334C2.91663 4.47283 2.96052 4.36685 3.03866 4.28871C3.11681 4.21057 3.22279 4.16667 3.33329 4.16667H16.6666C16.7771 4.16667 16.8831 4.21057 16.9613 4.28871C17.0394 4.36685 17.0833 4.47283 17.0833 4.58334V5.41667H15.3433ZM8.33329 2.08334H11.6666C11.7771 2.08334 11.8831 2.12723 11.9613 2.20537C12.0394 2.28351 12.0833 2.3895 12.0833 2.5V3.33334H7.91663V2.5C7.91663 2.3895 7.96052 2.28351 8.03866 2.20537C8.11681 2.12723 8.22279 2.08334 8.33329 2.08334ZM7.49996 7.5L7.91663 15H9.16663L8.83329 7.5H7.49996ZM11.25 7.5L10.8333 15H12.0833L12.5 7.5H11.25Z" fill="#6B7280"/>
</svg>
