<svg width="25" height="24" viewBox="0 0 25 24" fill="none" xmlns="http://www.w3.org/2000/svg">
<path d="M4.45703 21H20.457M6.12303 13.187C5.69665 13.6143 5.45714 14.1933 5.45703 14.797V18H8.68003C9.28403 18 9.86303 17.76 10.29 17.332L19.79 7.827C20.2163 7.3996 20.4556 6.82062 20.4556 6.217C20.4556 5.61339 20.2163 5.0344 19.79 4.607L18.852 3.667C18.6405 3.45535 18.3893 3.28748 18.1128 3.17297C17.8364 3.05846 17.5401 2.99957 17.2408 2.99966C16.9416 2.99976 16.6453 3.05883 16.3689 3.17351C16.0925 3.28819 15.8414 3.45622 15.63 3.668L6.12303 13.187Z" stroke="#878993" stroke-width="2" stroke-linecap="round" stroke-linejoin="round"/>
</svg>
